<svg xmlns="http://www.w3.org/2000/svg" fill="none" viewBox="0 0 187 195">
  <g filter="url(#a)">
    <path fill="#fff" fill-rule="evenodd" d="M33 134.6v.3c-7 4.8-6.1 16.6 0 20.6v.3l-4.2 1.7v9h34.3v-11.9h-15c-8 0-10.6-1.7-10.6-5.2 0-2.6 2-4 7-4H63v-11.8h-16c-8.8 0-9.6-3-9.6-5.1 0-3.6 3.5-4.2 7-4.2H63v-11.8H40.8c-16.3 0-14.6 17.2-7.8 22Zm27.7-56.8h-9.4c1.7 2.8 6.2 12.5-.5 15.4-2.4 1-7 1-9.5 0-4.7-1.9-4.8-6.2-1.7-13l-8.8-3.5c-5 9.8-4.4 29.2 15.3 29.2 20.8 0 19.6-20.4 14.6-28ZM16 59.2V71h47.1V59.2h-15c-7.6 0-10.6-1.8-10.6-5.7 0-1.9 1-4 6.9-4h18.7v-12H40.8A11.9 11.9 0 0 0 33 59.1v.6c-5.6-.6-11.3-.5-17-.5ZM52.6 4c-11.7-.3-11.2 15.7-15 15.7-2.3 0-1.7-6 1.1-12.2l-7.6-3.3C26 15.8 27.3 31 38.3 31c12.2 0 10.7-15.8 15-15.8 3 0 1.9 9.4-1 15.7h9.5C64.2 24.6 67.2 4 52.6 4Zm54.3.6a2 2 0 0 1 2.3 2v51c0 1.7 2.1 2.7 3.5 1.7 11-7.5 57.4-21 57.4 31.5v72.5a2 2 0 0 1-2 2h-31.3a2 2 0 0 1-2-2V95.9c0-10.4-2-17.3-8.8-17.3-7.6 0-16.8 10.7-16.8 28v56.7a2 2 0 0 1-2 2h-31a2 2 0 0 1-2-2V11.8a2 2 0 0 1 1.6-2l31-5.2Z" clip-rule="evenodd"/>
  </g>
  <defs>
    <filter id="a" width="186.1" height="194.5" x="0" y="0" color-interpolation-filters="sRGB" filterUnits="userSpaceOnUse">
      <feFlood flood-opacity="0" result="BackgroundImageFix"/>
      <feColorMatrix in="SourceAlpha" result="hardAlpha" values="0 0 0 0 0 0 0 0 0 0 0 0 0 0 0 0 0 0 127 0"/>
      <feOffset dy="12"/>
      <feGaussianBlur stdDeviation="8"/>
      <feColorMatrix values="0 0 0 0 0 0 0 0 0 0 0 0 0 0 0 0 0 0 0.25 0"/>
      <feBlend in2="BackgroundImageFix" result="effect1_dropShadow_139_13"/>
      <feColorMatrix in="SourceAlpha" result="hardAlpha" values="0 0 0 0 0 0 0 0 0 0 0 0 0 0 0 0 0 0 127 0"/>
      <feOffset dy="4"/>
      <feGaussianBlur stdDeviation="4"/>
      <feColorMatrix values="0 0 0 0 0 0 0 0 0 0 0 0 0 0 0 0 0 0 0.125 0"/>
      <feBlend in2="effect1_dropShadow_139_13" result="effect2_dropShadow_139_13"/>
      <feBlend in="SourceGraphic" in2="effect2_dropShadow_139_13" result="shape"/>
      <feColorMatrix in="SourceAlpha" result="hardAlpha" values="0 0 0 0 0 0 0 0 0 0 0 0 0 0 0 0 0 0 127 0"/>
      <feOffset dy="-2"/>
      <feGaussianBlur stdDeviation="3"/>
      <feComposite in2="hardAlpha" k2="-1" k3="1" operator="arithmetic"/>
      <feColorMatrix values="0 0 0 0 0 0 0 0 0 0 0 0 0 0 0 0 0 0 0.125 0"/>
      <feBlend in2="shape" result="effect3_innerShadow_139_13"/>
      <feColorMatrix in="SourceAlpha" result="hardAlpha" values="0 0 0 0 0 0 0 0 0 0 0 0 0 0 0 0 0 0 127 0"/>
      <feOffset dy="-2"/>
      <feGaussianBlur stdDeviation="3"/>
      <feComposite in2="hardAlpha" k2="-1" k3="1" operator="arithmetic"/>
      <feColorMatrix values="0 0 0 0 0.34902 0 0 0 0 0.00392157 0 0 0 0 0.788235 0 0 0 0.5 0"/>
      <feBlend in2="effect3_innerShadow_139_13" result="effect4_innerShadow_139_13"/>
    </filter>
  </defs>
</svg>