<svg xmlns="http://www.w3.org/2000/svg" width="155" height="163">
  <path fill="#fff" d="M17 130.6v.3c-7 4.8-6.1 16.6 0 20.6v.3l-4.2 1.7v9h34.3v-11.9h-15c-8 0-10.6-1.7-10.6-5.2 0-2.6 2-4 7-4H47v-11.8h-16c-8.8 0-9.6-3-9.6-5.1 0-3.6 3.5-4.2 7-4.2H47v-11.8H24.8c-16.3 0-14.6 17.2-7.8 22Zm27.7-56.8h-9.4c1.7 2.8 6.2 12.5-.5 15.4-2.4 1-7 1-9.5 0-4.7-1.9-4.8-6.2-1.7-13l-8.8-3.5c-5 9.8-4.4 29.2 15.3 29.2 20.8 0 19.6-20.4 14.6-28ZM0 55.2V67h47.1V55.2h-15c-7.6 0-10.6-1.8-10.6-5.7 0-1.9 1-4 6.9-4h18.7v-12H24.8A11.9 11.9 0 0 0 17 55.1v.6c-5.6-.6-11.3-.5-17-.5ZM36.6 0c-11.7-.3-11.2 15.7-15 15.7-2.3 0-1.7-6 1.1-12.2L15.1.2C10 11.8 11.3 27 22.3 27c12.2 0 10.7-15.8 15-15.8 3 0 1.9 9.4-1 15.7h9.5C48.2 20.6 51.2 0 36.6 0Zm54.3.6a2 2 0 0 1 2.3 2v51c0 1.7 2.1 2.7 3.5 1.7 11-7.5 57.4-21 57.4 31.5v72.5a2 2 0 0 1-2 2h-31.3a2 2 0 0 1-2-2V91.9c0-10.4-2-17.3-8.8-17.3-7.6 0-16.8 10.7-16.8 28v56.7a2 2 0 0 1-2 2H60.1a2 2 0 0 1-2-2V7.8a2 2 0 0 1 1.7-2l31-5.2Z"/>
</svg>